<svg width="13" height="16" viewBox="0 0 13 16" fill="none" xmlns="http://www.w3.org/2000/svg">
<path d="M12 6.72727C12 11.1818 6.40005 15 6.40005 15C6.40005 15 0.800049 11.1818 0.800049 6.72727C0.800049 5.20831 1.39005 3.75155 2.44025 2.67748C3.49045 1.60341 4.91484 1 6.40005 1C7.88526 1 9.30964 1.60341 10.3598 2.67748C11.41 3.75155 12 5.20831 12 6.72727Z" stroke="white" stroke-linecap="round" stroke-linejoin="round"/>
<path d="M6.40005 8.46673C7.43098 8.46673 8.26671 7.631 8.26671 6.60007C8.26671 5.56913 7.43098 4.7334 6.40005 4.7334C5.36911 4.7334 4.53338 5.56913 4.53338 6.60007C4.53338 7.631 5.36911 8.46673 6.40005 8.46673Z" stroke="white" stroke-linecap="round" stroke-linejoin="round"/>
</svg>
