<svg width="31" height="34" viewBox="0 0 31 34" fill="none" xmlns="http://www.w3.org/2000/svg">
<path d="M3.14504 32.5397C4.12767 33.0639 5.17609 33.3916 6.22455 33.3916C7.33836 33.3916 8.45217 33.0639 9.43523 32.4744L26.9295 22.0565C28.8294 20.9427 30.009 18.9116 30.009 16.6835C30.009 14.4559 28.8952 12.4249 26.9295 11.3105L9.43523 0.892711C7.46946 -0.286444 5.11068 -0.286445 3.14492 0.827353C1.17915 1.94115 0 3.97227 0 6.26565V27.167C0 29.3942 1.17974 31.4258 3.14504 32.5397ZM1.31043 6.26555C1.31043 4.43095 2.22771 2.85831 3.80037 1.94101C4.58649 1.48213 5.43841 1.28561 6.22455 1.28561C7.07647 1.28561 7.99375 1.54749 8.77989 2.00637L26.2742 12.4242C27.781 13.3415 28.6983 14.9141 28.6983 16.6829C28.6983 18.4521 27.7811 20.0243 26.2742 20.9415L8.77989 31.3603C7.20726 32.2776 5.37265 32.2776 3.80037 31.4256C2.22773 30.5742 1.31043 28.9362 1.31043 27.1016V6.26555Z" fill="white"/>
</svg>
